<?xml version="1.0" standalone="no"?>
<!DOCTYPE svg PUBLIC "-//W3C//DTD SVG 20010904//EN"
 "http://www.w3.org/TR/2001/REC-SVG-20010904/DTD/svg10.dtd">
<svg version="1.0" xmlns="http://www.w3.org/2000/svg"
 width="378.000000pt" height="596.000000pt" viewBox="0 0 378.000000 596.000000"
 preserveAspectRatio="xMidYMid meet">

<g transform="translate(0.000000,596.000000) scale(0.100000,-0.100000)"
fill="#D2001A" stroke="none">
<path d="M1475 5830 c140 -189 170 -281 169 -515 -1 -146 -3 -170 -32 -275
-110 -407 -239 -653 -1043 -1990 -352 -584 -425 -719 -483 -889 -62 -179 -80
-284 -80 -466 1 -136 5 -177 27 -271 62 -269 205 -511 438 -744 267 -268 733
-551 1083 -659 37 -11 72 -21 77 -21 23 0 0 35 -107 160 -343 399 -484 713
-484 1075 0 207 48 393 177 686 118 269 257 495 610 992 250 350 344 499 434
682 76 157 125 295 140 402 44 310 -198 858 -670 1518 -88 123 -317 415 -326
415 -3 0 29 -45 70 -100z"/>
<path d="M2725 3915 c70 -177 56 -416 -41 -685 -82 -229 -207 -440 -484 -820
-210 -288 -409 -599 -504 -789 -128 -254 -96 -565 88 -839 40 -60 146 -176
146 -160 0 3 -11 30 -25 59 -13 29 -27 76 -31 105 -14 116 34 321 112 476 59
116 110 192 257 377 433 545 659 928 723 1228 23 107 22 388 -1 493 -27 119
-92 294 -163 437 -77 153 -115 212 -77 118z"/>
<path d="M3418 3215 c120 -244 56 -738 -153 -1170 -77 -159 -177 -294 -441
-595 -181 -207 -304 -373 -365 -492 -87 -170 -150 -455 -148 -670 2 -193 19
-208 92 -74 97 179 224 322 567 636 319 292 442 427 566 616 113 173 195 384
225 579 16 104 16 370 0 465 -30 176 -67 263 -223 524 -120 200 -158 257 -120
181z"/>
</g>
</svg>
